<mxfile host="Electron" agent="Mozilla/5.0 (Windows NT 10.0; Win64; x64) AppleWebKit/537.36 (KHTML, like Gecko) draw.io/27.0.5 Chrome/134.0.6998.205 Electron/35.3.0 Safari/537.36" version="27.0.5">
  <diagram name="Page-1" id="4vcVxBJyVhxWMWPtQEGd">
    <mxGraphModel dx="1042" dy="626" grid="1" gridSize="10" guides="1" tooltips="1" connect="1" arrows="1" fold="1" page="1" pageScale="1" pageWidth="850" pageHeight="1100" math="0" shadow="0">
      <root>
        <mxCell id="0" />
        <mxCell id="1" parent="0" />
        <mxCell id="BoP3l2imNx3CaBwB17oo-2" value="&lt;font style=&quot;font-size: 11px;&quot;&gt;Transactional Records about Sales &amp;amp; Orders&lt;/font&gt;" style="text;html=1;align=center;verticalAlign=middle;whiteSpace=wrap;rounded=0;" vertex="1" parent="1">
          <mxGeometry x="85" y="190" width="170" height="30" as="geometry" />
        </mxCell>
        <mxCell id="BoP3l2imNx3CaBwB17oo-4" value="crm_sales_details" style="swimlane;fontStyle=0;childLayout=stackLayout;horizontal=1;startSize=30;horizontalStack=0;resizeParent=1;resizeParentMax=0;resizeLast=0;collapsible=1;marginBottom=0;whiteSpace=wrap;html=1;rounded=1;fillColor=#dae8fc;strokeColor=#6c8ebf;" vertex="1" parent="1">
          <mxGeometry x="100" y="220" width="140" height="90" as="geometry" />
        </mxCell>
        <mxCell id="BoP3l2imNx3CaBwB17oo-5" value="prd_key&lt;span style=&quot;white-space: pre;&quot;&gt;&#x9;&lt;/span&gt;&lt;span style=&quot;white-space: pre;&quot;&gt;&#x9;&lt;/span&gt;&lt;span style=&quot;white-space: pre;&quot;&gt;&#x9;&lt;/span&gt;" style="text;strokeColor=none;fillColor=none;align=left;verticalAlign=middle;spacingLeft=4;spacingRight=4;overflow=hidden;points=[[0,0.5],[1,0.5]];portConstraint=eastwest;rotatable=0;whiteSpace=wrap;html=1;" vertex="1" parent="BoP3l2imNx3CaBwB17oo-4">
          <mxGeometry y="30" width="140" height="30" as="geometry" />
        </mxCell>
        <mxCell id="BoP3l2imNx3CaBwB17oo-9" value="cst_id&lt;span style=&quot;white-space: pre;&quot;&gt;&#x9;&lt;/span&gt;&lt;span style=&quot;white-space: pre;&quot;&gt;&#x9;&lt;/span&gt;&lt;span style=&quot;white-space: pre;&quot;&gt;&#x9;&lt;/span&gt;" style="text;strokeColor=none;fillColor=none;align=left;verticalAlign=middle;spacingLeft=4;spacingRight=4;overflow=hidden;points=[[0,0.5],[1,0.5]];portConstraint=eastwest;rotatable=0;whiteSpace=wrap;html=1;" vertex="1" parent="BoP3l2imNx3CaBwB17oo-4">
          <mxGeometry y="60" width="140" height="30" as="geometry" />
        </mxCell>
        <mxCell id="BoP3l2imNx3CaBwB17oo-10" value="crm_prd_info" style="swimlane;fontStyle=0;childLayout=stackLayout;horizontal=1;startSize=30;horizontalStack=0;resizeParent=1;resizeParentMax=0;resizeLast=0;collapsible=1;marginBottom=0;whiteSpace=wrap;html=1;rounded=1;fillColor=#dae8fc;strokeColor=#6c8ebf;" vertex="1" parent="1">
          <mxGeometry x="320" y="160" width="140" height="60" as="geometry" />
        </mxCell>
        <mxCell id="BoP3l2imNx3CaBwB17oo-11" value="prd_key&lt;span style=&quot;white-space: pre;&quot;&gt;&#x9;&lt;/span&gt;&lt;span style=&quot;white-space: pre;&quot;&gt;&#x9;&lt;/span&gt;&lt;span style=&quot;white-space: pre;&quot;&gt;&#x9;&lt;/span&gt;" style="text;strokeColor=none;fillColor=none;align=left;verticalAlign=middle;spacingLeft=4;spacingRight=4;overflow=hidden;points=[[0,0.5],[1,0.5]];portConstraint=eastwest;rotatable=0;whiteSpace=wrap;html=1;" vertex="1" parent="BoP3l2imNx3CaBwB17oo-10">
          <mxGeometry y="30" width="140" height="30" as="geometry" />
        </mxCell>
        <mxCell id="BoP3l2imNx3CaBwB17oo-13" value="crm_cust_info" style="swimlane;fontStyle=0;childLayout=stackLayout;horizontal=1;startSize=30;horizontalStack=0;resizeParent=1;resizeParentMax=0;resizeLast=0;collapsible=1;marginBottom=0;whiteSpace=wrap;html=1;rounded=1;fillColor=#dae8fc;strokeColor=#6c8ebf;" vertex="1" parent="1">
          <mxGeometry x="320" y="292" width="140" height="90" as="geometry" />
        </mxCell>
        <mxCell id="BoP3l2imNx3CaBwB17oo-14" value="cst_id&lt;span style=&quot;white-space: pre;&quot;&gt;&#x9;&lt;/span&gt;&lt;span style=&quot;white-space: pre;&quot;&gt;&#x9;&lt;/span&gt;&lt;span style=&quot;white-space: pre;&quot;&gt;&#x9;&lt;/span&gt;" style="text;strokeColor=none;fillColor=none;align=left;verticalAlign=middle;spacingLeft=4;spacingRight=4;overflow=hidden;points=[[0,0.5],[1,0.5]];portConstraint=eastwest;rotatable=0;whiteSpace=wrap;html=1;" vertex="1" parent="BoP3l2imNx3CaBwB17oo-13">
          <mxGeometry y="30" width="140" height="30" as="geometry" />
        </mxCell>
        <mxCell id="BoP3l2imNx3CaBwB17oo-15" value="cst_key&lt;span style=&quot;white-space: pre;&quot;&gt;&#x9;&lt;/span&gt;&lt;span style=&quot;white-space: pre;&quot;&gt;&#x9;&lt;/span&gt;&lt;span style=&quot;white-space: pre;&quot;&gt;&#x9;&lt;/span&gt;" style="text;strokeColor=none;fillColor=none;align=left;verticalAlign=middle;spacingLeft=4;spacingRight=4;overflow=hidden;points=[[0,0.5],[1,0.5]];portConstraint=eastwest;rotatable=0;whiteSpace=wrap;html=1;" vertex="1" parent="BoP3l2imNx3CaBwB17oo-13">
          <mxGeometry y="60" width="140" height="30" as="geometry" />
        </mxCell>
        <mxCell id="BoP3l2imNx3CaBwB17oo-16" value="erp_px_cat_g1v2" style="swimlane;fontStyle=0;childLayout=stackLayout;horizontal=1;startSize=30;horizontalStack=0;resizeParent=1;resizeParentMax=0;resizeLast=0;collapsible=1;marginBottom=0;whiteSpace=wrap;html=1;rounded=1;fillColor=#ffe6cc;strokeColor=#d79b00;" vertex="1" parent="1">
          <mxGeometry x="640" y="153" width="140" height="60" as="geometry" />
        </mxCell>
        <mxCell id="BoP3l2imNx3CaBwB17oo-17" value="id" style="text;strokeColor=none;fillColor=none;align=left;verticalAlign=middle;spacingLeft=4;spacingRight=4;overflow=hidden;points=[[0,0.5],[1,0.5]];portConstraint=eastwest;rotatable=0;whiteSpace=wrap;html=1;" vertex="1" parent="BoP3l2imNx3CaBwB17oo-16">
          <mxGeometry y="30" width="140" height="30" as="geometry" />
        </mxCell>
        <mxCell id="BoP3l2imNx3CaBwB17oo-18" value="erp_loc_a101" style="swimlane;fontStyle=0;childLayout=stackLayout;horizontal=1;startSize=30;horizontalStack=0;resizeParent=1;resizeParentMax=0;resizeLast=0;collapsible=1;marginBottom=0;whiteSpace=wrap;html=1;rounded=1;fillColor=#ffe6cc;strokeColor=#d79b00;" vertex="1" parent="1">
          <mxGeometry x="640" y="370" width="140" height="60" as="geometry" />
        </mxCell>
        <mxCell id="BoP3l2imNx3CaBwB17oo-19" value="cid" style="text;strokeColor=none;fillColor=none;align=left;verticalAlign=middle;spacingLeft=4;spacingRight=4;overflow=hidden;points=[[0,0.5],[1,0.5]];portConstraint=eastwest;rotatable=0;whiteSpace=wrap;html=1;" vertex="1" parent="BoP3l2imNx3CaBwB17oo-18">
          <mxGeometry y="30" width="140" height="30" as="geometry" />
        </mxCell>
        <mxCell id="BoP3l2imNx3CaBwB17oo-20" value="erp_cust_az12" style="swimlane;fontStyle=0;childLayout=stackLayout;horizontal=1;startSize=30;horizontalStack=0;resizeParent=1;resizeParentMax=0;resizeLast=0;collapsible=1;marginBottom=0;whiteSpace=wrap;html=1;rounded=1;fillColor=#ffe6cc;strokeColor=#d79b00;" vertex="1" parent="1">
          <mxGeometry x="640" y="250" width="140" height="60" as="geometry" />
        </mxCell>
        <mxCell id="BoP3l2imNx3CaBwB17oo-21" value="cid" style="text;strokeColor=none;fillColor=none;align=left;verticalAlign=middle;spacingLeft=4;spacingRight=4;overflow=hidden;points=[[0,0.5],[1,0.5]];portConstraint=eastwest;rotatable=0;whiteSpace=wrap;html=1;" vertex="1" parent="BoP3l2imNx3CaBwB17oo-20">
          <mxGeometry y="30" width="140" height="30" as="geometry" />
        </mxCell>
        <mxCell id="BoP3l2imNx3CaBwB17oo-22" style="edgeStyle=orthogonalEdgeStyle;rounded=0;orthogonalLoop=1;jettySize=auto;html=1;exitX=1;exitY=0.5;exitDx=0;exitDy=0;entryX=0.014;entryY=0.147;entryDx=0;entryDy=0;entryPerimeter=0;" edge="1" parent="1" source="BoP3l2imNx3CaBwB17oo-5" target="BoP3l2imNx3CaBwB17oo-11">
          <mxGeometry relative="1" as="geometry" />
        </mxCell>
        <mxCell id="BoP3l2imNx3CaBwB17oo-23" style="edgeStyle=orthogonalEdgeStyle;rounded=0;orthogonalLoop=1;jettySize=auto;html=1;entryX=-0.009;entryY=0.12;entryDx=0;entryDy=0;entryPerimeter=0;" edge="1" parent="1" source="BoP3l2imNx3CaBwB17oo-5" target="BoP3l2imNx3CaBwB17oo-15">
          <mxGeometry relative="1" as="geometry" />
        </mxCell>
        <mxCell id="BoP3l2imNx3CaBwB17oo-25" style="edgeStyle=orthogonalEdgeStyle;rounded=0;orthogonalLoop=1;jettySize=auto;html=1;exitX=0;exitY=0.5;exitDx=0;exitDy=0;entryX=1.014;entryY=0.28;entryDx=0;entryDy=0;entryPerimeter=0;" edge="1" parent="1" source="BoP3l2imNx3CaBwB17oo-17" target="BoP3l2imNx3CaBwB17oo-11">
          <mxGeometry relative="1" as="geometry" />
        </mxCell>
        <mxCell id="BoP3l2imNx3CaBwB17oo-26" style="edgeStyle=orthogonalEdgeStyle;rounded=0;orthogonalLoop=1;jettySize=auto;html=1;exitX=0;exitY=0.5;exitDx=0;exitDy=0;entryX=1.003;entryY=0.8;entryDx=0;entryDy=0;entryPerimeter=0;" edge="1" parent="1" source="BoP3l2imNx3CaBwB17oo-21" target="BoP3l2imNx3CaBwB17oo-14">
          <mxGeometry relative="1" as="geometry" />
        </mxCell>
        <mxCell id="BoP3l2imNx3CaBwB17oo-28" style="edgeStyle=orthogonalEdgeStyle;rounded=0;orthogonalLoop=1;jettySize=auto;html=1;exitX=0;exitY=0.5;exitDx=0;exitDy=0;entryX=1.003;entryY=0.8;entryDx=0;entryDy=0;entryPerimeter=0;" edge="1" parent="1" source="BoP3l2imNx3CaBwB17oo-18" target="BoP3l2imNx3CaBwB17oo-14">
          <mxGeometry relative="1" as="geometry" />
        </mxCell>
        <mxCell id="BoP3l2imNx3CaBwB17oo-29" value="&lt;font style=&quot;font-size: 11px;&quot;&gt;Current &amp;amp; History Product Information&lt;/font&gt;" style="text;html=1;align=center;verticalAlign=middle;whiteSpace=wrap;rounded=0;" vertex="1" parent="1">
          <mxGeometry x="290" y="130" width="200" height="30" as="geometry" />
        </mxCell>
        <mxCell id="BoP3l2imNx3CaBwB17oo-30" value="&lt;font style=&quot;font-size: 11px;&quot;&gt;Customer Information&lt;/font&gt;" style="text;html=1;align=center;verticalAlign=middle;whiteSpace=wrap;rounded=0;" vertex="1" parent="1">
          <mxGeometry x="325" y="260" width="130" height="30" as="geometry" />
        </mxCell>
        <mxCell id="BoP3l2imNx3CaBwB17oo-31" value="&lt;br&gt;&lt;font style=&quot;font-size: 11px;&quot;&gt;Extra Customer Information (Birthdate)&lt;br&gt;&lt;/font&gt;" style="text;html=1;align=center;verticalAlign=middle;whiteSpace=wrap;rounded=0;" vertex="1" parent="1">
          <mxGeometry x="597.5" y="216" width="225" height="30" as="geometry" />
        </mxCell>
        <mxCell id="BoP3l2imNx3CaBwB17oo-32" value="&#xa;Location of Customers (Country)&#xa;&#xa;" style="text;html=1;align=center;verticalAlign=middle;whiteSpace=wrap;rounded=0;" vertex="1" parent="1">
          <mxGeometry x="623" y="349" width="185" height="30" as="geometry" />
        </mxCell>
        <mxCell id="BoP3l2imNx3CaBwB17oo-33" value="" style="rounded=1;whiteSpace=wrap;html=1;fillColor=none;fontColor=#333333;strokeColor=#666666;shadow=1;dashed=1;" vertex="1" parent="1">
          <mxGeometry x="80" y="80" width="410" height="360" as="geometry" />
        </mxCell>
        <mxCell id="BoP3l2imNx3CaBwB17oo-34" value="&lt;font style=&quot;font-size: 14px;&quot;&gt;CRM&lt;/font&gt;" style="rounded=1;whiteSpace=wrap;html=1;dashed=1;dashPattern=1 2;fillColor=#dae8fc;strokeColor=#6c8ebf;" vertex="1" parent="1">
          <mxGeometry x="222.5" y="60" width="125" height="30" as="geometry" />
        </mxCell>
        <mxCell id="BoP3l2imNx3CaBwB17oo-35" value="" style="rounded=1;whiteSpace=wrap;html=1;fillColor=none;fontColor=#333333;strokeColor=#666666;shadow=1;dashed=1;" vertex="1" parent="1">
          <mxGeometry x="547" y="80" width="295" height="360" as="geometry" />
        </mxCell>
        <mxCell id="BoP3l2imNx3CaBwB17oo-36" value="&lt;font style=&quot;font-size: 14px;&quot;&gt;ERP&lt;/font&gt;" style="rounded=1;whiteSpace=wrap;html=1;dashed=1;dashPattern=1 2;fillColor=#ffe6cc;strokeColor=#d79b00;" vertex="1" parent="1">
          <mxGeometry x="660" y="60" width="95" height="30" as="geometry" />
        </mxCell>
        <mxCell id="BoP3l2imNx3CaBwB17oo-37" value="&lt;br&gt;&lt;font style=&quot;font-size: 11px;&quot;&gt;Product Categories&lt;br&gt;&lt;/font&gt;" style="text;html=1;align=center;verticalAlign=middle;whiteSpace=wrap;rounded=0;" vertex="1" parent="1">
          <mxGeometry x="631.25" y="123" width="152.5" height="30" as="geometry" />
        </mxCell>
      </root>
    </mxGraphModel>
  </diagram>
</mxfile>
